# xmcd
#
# Track frame offsets:
#	150
#	12942
#	26605
#	38260
#	50285
#	59535
#	71982
#	89240
#	98905
#	110092
#	124110
#	138010
#	153755
#	167865
#
# Disc length: 2426 seconds
#
# Revision: 0
# Processed by: cddbd v1.4PL0 Copyright (c) Steve Scherf et al.
# Submitted via: dBpowerAMP V4.0
#
DISCID=ba09780e
DTITLE=Kikki Danielsson - In country
DYEAR=1900
DGENRE=Country
TTITLE0=Listen To A Country Song
TTITLE1=Talking In Your sleep
TTITLE2=Walk On By
TTITLE3=Stand By Your Man
TTITLE4=Sweet Little You
TTITLE5=Nine To Five
TTITLE6=U.S. Of America
TTITLE7=Cowboy Yoddle Song
TTITLE8=Diggy Diggy Lo
TTITLE9=Good Year For The Roses
TTITLE10=Stagger Lee
TTITLE11=Texas (When I Die)
TTITLE12=Take Me To The Pilot
TTITLE13=Nashville Tennessee
EXTD=
EXTT0=
EXTT1=
EXTT2=
EXTT3=
EXTT4=
EXTT5=
EXTT6=
EXTT7=
EXTT8=
EXTT9=
EXTT10=
EXTT11=
EXTT12=
EXTT13=
PLAYORDER=
